# File created by Blade
# Date/Time:  Tue Jan 27 17:16:36 2015
#---------------------------------------------------------
:version 1.10
:name HOM
:units
  mass 1.0
  length 1.000000
  angle deg
:documentation
     Acclaim Skeleton File
:root
   axis xyz
   order TX TY TZ RX RY RZ
   position 0.000000 0.000000 0.000000
   orientation 0 0 0
:bonedata
   begin
      id 1
      name Spine_dum
      direction 0.000000 1.000000 0.000000
      length 7.539951
      axis 0.0 0.0 0.0 xyz
   end
   begin
      id 2
      name LeftUpLeg_dum
      direction 1.000000 0.000000 0.000000
      length 3.345476
      axis 0.0 0.0 0.0 xyz
   end
   begin
      id 3
      name RightUpLeg_dum
      direction -1.000000 0.000000 0.000000
      length 3.345476
      axis 0.0 0.0 0.0 xyz
   end
   begin
      id 4
      name Spine
      direction 0.000000 1.000000 0.000000
      length 0.000000
      axis 0.0 0.0 0.0 xyz
      dof rx ry rz
   end
   begin
      id 5
      name Spine_dum1
      direction 0.000000 1.000000 0.000000
      length 15.093809
      axis 0.0 0.0 0.0 xyz
   end
   begin
      id 6
      name Spine_dum2
      direction 0.000000 1.000000 0.000000
      length 9.738928
      axis 0.0 0.0 0.0 xyz
   end
   begin
      id 7
      name Spine_dum3
      direction 0.000000 1.000000 0.000000
      length 9.738928
      axis 0.0 0.0 0.0 xyz
   end
   begin
      id 8
      name Head
      direction 0.000000 1.000000 0.000000
      length 4.527550
      axis 0.0 0.0 0.0 xyz
      dof rx ry rz
   end
   begin
      id 9
      name LeftShoulder
      direction 1.000000 0.000000 0.000000
      length 7.084015
      axis 0.0 0.0 -90.0 xyz
      dof rx ry rz
   end
   begin
      id 10
      name LeftArm
      direction 1.000000 0.000000 0.000000
      length 10.259319
      axis 0.0 0.0 -90.0 xyz
      dof rx ry rz
   end
   begin
      id 11
      name LeftForeArm
      direction 1.000000 0.000000 0.000000
      length 9.896984
      axis 0.0 0.0 -90.0 xyz
      dof ry rz rx
   end
   begin
      id 12
      name LeftHand
      direction 0.000000 0.000000 0.000000
      length 0.000000
      axis 0.0 0.0 -90.0 xyz
      dof rx ry rz
   end
   begin
      id 13
      name LeftHand_dum1
      direction 0.000000 0.000000 0.000000
      length 0.000000
      axis 0.0 0.0 -90.0 xyz
   end
   begin
      id 14
      name LeftHand_dum2
      direction 1.000000 0.000000 0.000000
      length 3.937000
      axis 0.0 0.0 -90.0 xyz
   end
   begin
      id 15
      name LeftHandThumb1
      direction 0.000000 0.000000 1.000000
      length 3.937000
      axis 0.0 0.0 -90.0 xyz
      dof rx rz ry
   end
   begin
      id 16
      name RightShoulder
      direction -1.000000 0.000000 0.000000
      length 7.084015
      axis 0.0 0.0 90.0 xyz
      dof rx ry rz
   end
   begin
      id 17
      name RightArm
      direction -1.000000 0.000000 0.000000
      length 10.259319
      axis 0.0 0.0 90.0 xyz
      dof rx ry rz
   end
   begin
      id 18
      name RightForeArm
      direction -1.000000 0.000000 0.000000
      length 9.896984
      axis 0.0 0.0 90.0 xyz
      dof ry rz rx
   end
   begin
      id 19
      name RightHand
      direction 0.000000 0.000000 0.000000
      length 0.000000
      axis 0.0 0.0 90.0 xyz
      dof rx ry rz
   end
   begin
      id 20
      name RightHand_dum1
      direction 0.000000 0.000000 0.000000
      length 0.000000
      axis 0.0 0.0 90.0 xyz
   end
   begin
      id 21
      name RightHand_dum2
      direction -1.000000 0.000000 0.000000
      length 3.937000
      axis 0.0 0.0 90.0 xyz
   end
   begin
      id 22
      name RightHandThumb1
      direction 0.000000 0.000000 1.000000
      length 3.937000
      axis 0.0 0.0 90.0 xyz
      dof rx rz ry
   end
   begin
      id 23
      name LeftUpLeg
      direction 0.000000 -1.000000 0.000000
      length 19.114733
      axis 0.0 0.0 0.0 xyz
      dof rx ry rz
   end
   begin
      id 24
      name LeftLeg
      direction 0.000000 -1.000000 0.000000
      length 16.045604
      axis 0.0 0.0 0.0 xyz
      dof rx ry rz
   end
   begin
      id 25
      name LeftFoot
      direction 0.000000 -0.258819 0.965926
      length 5.543155
      axis 15.0 0.0 0.0 xyz
      dof rx ry rz
   end
   begin
      id 26
      name LeftToeBase
      direction 0.000000 0.000000 1.000000
      length 2.952750
      axis 0.0 0.0 0.0 xyz
      dof rx ry rz
   end
   begin
      id 27
      name RightUpLeg
      direction 0.000000 -1.000000 0.000000
      length 19.114733
      axis 0.0 0.0 0.0 xyz
      dof rx ry rz
   end
   begin
      id 28
      name RightLeg
      direction 0.000000 -1.000000 0.000000
      length 16.045604
      axis 0.0 0.0 0.0 xyz
      dof rx ry rz
   end
   begin
      id 29
      name RightFoot
      direction 0.000000 -0.258819 0.965926
      length 5.543155
      axis 15.0 0.0 0.0 xyz
      dof rx ry rz
   end
   begin
      id 30
      name RightToeBase
      direction 0.000000 0.000000 1.000000
      length 2.952750
      axis 0.0 0.0 0.0 xyz
      dof rx ry rz
   end
:hierarchy
   begin
      root Spine_dum LeftUpLeg_dum RightUpLeg_dum
      Spine_dum Spine
      LeftUpLeg_dum LeftUpLeg
      RightUpLeg_dum RightUpLeg
      Spine Spine_dum1 Spine_dum2 Spine_dum3
      Spine_dum1 Head
      Spine_dum2 LeftShoulder
      Spine_dum3 RightShoulder
      LeftShoulder LeftArm
      LeftArm LeftForeArm
      LeftForeArm LeftHand
      LeftHand LeftHand_dum1 LeftHand_dum2
      LeftHand_dum1 LeftHandThumb1
      RightShoulder RightArm
      RightArm RightForeArm
      RightForeArm RightHand
      RightHand RightHand_dum1 RightHand_dum2
      RightHand_dum1 RightHandThumb1
      LeftUpLeg LeftLeg
      LeftLeg LeftFoot
      LeftFoot LeftToeBase
      RightUpLeg RightLeg
      RightLeg RightFoot
      RightFoot RightToeBase
   end

# File created by Blade
# Date/Time:  Tue Jan 27 17:16:27 2015
# Frame Rate: 120.000 fps
#------------------------------------------------------
:FULLY-SPECIFIED
:DEGREES
2798
root -1.925099 38.408454 0.538477 56.643262 44.248171 51.435158
Spine 4.366206 -0.732569 -13.110355
Head -9.306357 2.225995 -15.377782
LeftShoulder 6.902830 -17.258011 3.947936
LeftArm 19.352904 -12.939512 -53.966260
LeftForeArm -2.932520 -0.000000 62.412965
LeftHand -10.015607 -0.000000 57.958643
LeftHandThumb1 -26.253704 0.000000 33.147579
RightShoulder -1.447041 -18.699454 -8.071467
RightArm -0.291242 -9.445933 46.597772
RightForeArm -161.945803 -0.000000 29.370200
RightHand 0.112924 -0.000000 3.152893
RightHandThumb1 -24.326973 -0.000000 -32.862282
LeftUpLeg -63.453929 40.620780 3.903960
LeftLeg 93.380364 -0.000000 -0.000000
LeftFoot -2.707012 6.312794 -34.206844
LeftToeBase 16.149157 -0.000000 -0.000000
RightUpLeg -25.040001 -23.467618 -22.885300
RightLeg 21.903017 -0.000000 -0.000000
RightFoot -20.233603 -23.387249 6.712869
RightToeBase 5.497696 -0.000000 -0.000000
2799
root -1.901408 38.415649 0.532669 56.553945 44.282232 51.302489
Spine 4.247937 -0.743319 -13.085742
Head -9.264121 2.126256 -15.208287
LeftShoulder 6.854420 -17.231791 3.964299
LeftArm 19.230250 -12.867748 -53.969975
LeftForeArm -2.925810 -0.000000 62.472525
LeftHand -9.879854 -0.000000 57.981335
LeftHandThumb1 -26.253704 0.000000 33.147579
RightShoulder -1.533961 -18.773183 -8.028704
RightArm -0.327558 -9.458686 46.830884
RightForeArm -161.788145 -0.000000 29.349763
RightHand 0.172206 -0.000000 3.192891
RightHandThumb1 -24.326973 -0.000000 -32.862282
LeftUpLeg -63.475017 40.598038 3.720900
LeftLeg 95.637508 -0.000000 -0.000000
LeftFoot -2.332424 5.880440 -34.042224
LeftToeBase 16.115154 -0.000000 -0.000000
RightUpLeg -24.938814 -23.354493 -22.839937
RightLeg 21.690185 -0.000000 -0.000000
RightFoot -20.133291 -23.486917 6.703136
RightToeBase 5.481448 -0.000000 -0.000000
2800
root -1.879892 38.419953 0.529265 56.450044 44.357568 51.138038
Spine 4.116328 -0.751086 -13.003484
Head -9.220088 2.077481 -15.097516
LeftShoulder 6.787252 -17.236746 3.957802
LeftArm 19.155244 -12.735569 -53.932512
LeftForeArm -2.883284 -0.000000 62.482155
LeftHand -10.127509 -0.000000 58.074630
LeftHandThumb1 -26.253704 0.000000 33.147579
RightShoulder -1.613519 -18.829954 -8.001031
RightArm -0.402045 -9.560344 47.052843
RightForeArm -161.551927 0.000000 29.331352
RightHand 0.060820 -0.000000 3.197730
RightHandThumb1 -24.326973 -0.000000 -32.862282
LeftUpLeg -63.500745 40.590690 3.573226
LeftLeg 97.854913 -0.000000 -0.000000
LeftFoot -1.911560 5.325752 -33.737339
LeftToeBase 15.993061 -0.000000 -0.000000
RightUpLeg -24.844801 -23.211316 -22.749755
RightLeg 21.492877 -0.000000 -0.000000
RightFoot -20.043267 -23.598280 6.708666
RightToeBase 5.527192 -0.000000 -0.000000
2801
root -1.863082 38.421924 0.527148 56.415639 44.450921 50.974043
Spine 3.893065 -0.802763 -12.918941
Head -9.135376 2.058350 -14.991163
LeftShoulder 6.744912 -17.196671 3.986301
LeftArm 19.042188 -12.641255 -53.900334
LeftForeArm -2.856589 0.000000 62.499678
LeftHand -10.174865 -0.000000 58.297780
LeftHandThumb1 -26.253704 0.000000 33.147579
RightShoulder -1.668149 -18.901719 -8.004418
RightArm -0.477477 -9.621143 47.308101
RightForeArm -161.406135 -0.000000 29.312358
RightHand 0.105144 0.000000 3.187511
RightHandThumb1 -24.326973 -0.000000 -32.862282
LeftUpLeg -63.598830 40.582127 3.381717
LeftLeg 100.034777 -0.000000 -0.000000
LeftFoot -1.490083 4.605278 -33.293625
LeftToeBase 16.048597 -0.000000 -0.000000
RightUpLeg -24.823328 -23.076545 -22.619974
RightLeg 21.316121 -0.000000 -0.000000
RightFoot -19.966336 -23.726042 6.718261
RightToeBase 5.532430 -0.000000 -0.000000
